<?xml version="1.0" encoding="utf-8"?>
<!-- Generator: Adobe Illustrator 23.1.0, SVG Export Plug-In . SVG Version: 6.00 Build 0)  -->
<svg version="1.1" id="Capa_1" xmlns="http://www.w3.org/2000/svg" xmlns:xlink="http://www.w3.org/1999/xlink" x="0px" y="0px"
	 viewBox="0 0 904.4 162.7" style="enable-background:new 0 0 904.4 162.7;" xml:space="preserve">
<style type="text/css">
	.st0{fill:#FFFFFF;}
	.st1{fill:#00F976;}
</style>
<g>
	<path class="st0" d="M51.4,51H28.7c-5,0-9.3,3.7-10.3,8.8L0.1,152.9l0,0.1c-0.4,2.5,0.2,5,1.7,6.9c1.5,1.8,3.7,2.8,6.2,2.8
		c5.2,0,9.6-3.5,10.5-8.3l6.6-33.8h15.8L51.5,156l0,0.1c1.4,4.3,4.5,6.6,8.6,6.6c5.7,0,9.6-3.8,9.6-9.3c0-1.1-0.2-2.5-0.6-3.6
		l-10.5-32.2c6.2-2.2,11.1-5.3,15.1-9.4C80.7,101,84.2,91.2,84.2,79C84.2,61.5,72,51,51.4,51z M65.1,80.4c0,15.9-6.9,22.7-23.1,22.7
		H28.5l6.8-34.6h13C60.7,68.5,65.1,71.6,65.1,80.4z"/>
	<path class="st0" d="M157.7,68.5c5.5,0,10.1-4.4,10.1-9.6c0-4.5-3.3-7.8-7.8-7.8h-42c-5.5,0-9.6,3.4-10.8,8.7l-17.8,92l0,0
		c-0.4,2.6,0.2,5.1,1.7,7c1.5,1.8,3.6,2.7,6.1,2.7h42.5c5.5,0,10.1-4.4,10.1-9.6c0-4.5-3.3-7.8-7.8-7.8h-32.5l5.9-30.1h30.4
		c5.4,0,9.9-4.4,9.9-9.6c0-4.5-3.2-7.8-7.7-7.8h-29.2l5.4-28L157.7,68.5L157.7,68.5z"/>
	<path class="st0" d="M238.5,58.1c-4.2-3.4-15-8.3-26-8.3c-24.3,0-38.2,12.8-38.2,35c0,17,13.3,21.5,24,25.1
		c11,3.7,17.7,6.4,17.7,15.8c0,8.6-3.8,18.9-21.8,18.9c-8.6,0-15.6-2.8-20-5.2c-1.5-0.8-2.9-1.4-4.9-1.4c-4.9,0-8.9,4-8.9,8.9
		c0,2.7,1.2,5.2,3.3,6.9l0,0c6.9,5.5,17.7,8.7,29,8.7c14.5,0,25.5-4.3,32.7-12.7c5.9-6.9,9-16.4,9-27.5c0-19.3-14.7-24.2-26.5-28.2
		c-9.5-3.2-15.3-5.5-15.3-11.6c0-10,6.3-15.3,18.2-15.3c4.4,0,11.6,1.2,17.6,4.4c1.3,0.7,2.8,1.4,4.7,1.4c4.6,0,8.4-3.9,8.4-8.4
		C241.8,62.3,240.5,59.7,238.5,58.1z"/>
	<path class="st0" d="M316.8,51h-42c-5.5,0-9.6,3.4-10.8,8.7l-17.8,92l0,0c-0.5,2.6,0.2,5.1,1.7,7c1.5,1.8,3.6,2.7,6.1,2.7h42.5
		c5.5,0,10.1-4.4,10.1-9.6c0-4.5-3.3-7.8-7.8-7.8h-32.5l5.9-30.1h30.4c5.4,0,9.9-4.4,9.9-9.6c0-4.5-3.2-7.8-7.7-7.8h-29.2l5.5-28
		h33.6c5.5,0,10.1-4.4,10.1-9.6C324.7,54.3,321.4,51,316.8,51z"/>
	<path class="st0" d="M297.4,42.7c2.9,0,4.9-1,6.5-3.3l11.3-14.8c1.3-1.7,2.5-3.6,2.5-6.1c0-4.9-3.9-8.9-8.6-8.9
		c-3.5,0-6,1.5-7.9,4.5L291.6,31c-0.9,1.5-1.3,2.9-1.3,4.3C290.3,39.3,293.5,42.7,297.4,42.7z"/>
	<path class="st0" d="M374.5,51h-22.7c-5,0-9.3,3.7-10.3,8.8l-18.2,93.1l0,0.1c-0.4,2.5,0.2,5,1.7,6.9c1.5,1.8,3.7,2.8,6.2,2.8
		c5.2,0,9.6-3.5,10.5-8.3l6.6-33.8H364l10.6,35.5l0,0.1c1.4,4.3,4.5,6.6,8.6,6.6c5.7,0,9.6-3.8,9.6-9.3c0-1.1-0.2-2.5-0.6-3.6
		l-10.5-32.2c6.2-2.2,11.1-5.3,15.1-9.4c6.9-7.1,10.5-16.9,10.5-29.1C407.3,61.5,395.1,51,374.5,51z M388.2,80.4
		c0,15.9-6.9,22.7-23.1,22.7h-13.5l6.8-34.6h13C383.8,68.5,388.2,71.6,388.2,80.4z"/>
	<path class="st0" d="M500.9,59.1c0-5.2-4.1-9.3-9.3-9.3c-4,0-6.9,2-8.8,6L447,132.4l-5.9-74v0c-0.5-4.7-4.5-8.5-9.3-8.5
		c-5.2,0-9.3,4.1-9.3,9.3l0.3,4.3l8.4,90.4v0c0.5,4.6,3.8,7.7,8.3,7.7h6c5.8,0,8.2-3.2,9.9-6.7l44.1-90.3
		C500,63.4,500.9,61.5,500.9,59.1z"/>
	<path class="st0" d="M550.8,58.7c-0.5-4.7-3.6-7.6-8.1-7.6h-2.8c-4.1,0-7.6,2.4-9.8,6.7l-47.7,90.7l0,0c-0.7,1.3-1.5,3-1.5,5.2
		c0,4.7,4.2,9,8.9,9c4,0,6.9-1.8,8.7-5.5l11-21.7h32.9l2.4,19.4c0.5,4.4,4.4,7.8,8.9,7.8c5.5,0,9.5-3.9,9.5-9.2c0-0.5,0-1.5-0.2-3
		L550.8,58.7z M540.8,117.8h-23l18.4-36.5L540.8,117.8z"/>
	<path class="st0" d="M630.8,144h-32.1l16.4-84.3l0-0.1c0.4-2.7-0.2-5.1-1.8-7c-1.5-1.8-3.8-2.8-6.3-2.8c-5.1,0-9.2,3.5-10.3,8.7
		l-18.1,93.2c-0.5,2.6,0,5,1.5,6.9c1.5,1.8,3.7,2.8,6.1,2.8h42.3c5.4,0,9.9-4.4,9.9-9.6C638.5,147.4,635.2,144,630.8,144z"/>
	<path class="st0" d="M707.3,121.7L707.3,121.7c-1.5,7.9-4.1,13.6-7.8,17.3c-3.9,3.9-9.2,5.8-16.3,5.8c-6.1,0-10.2-1.4-12.5-4.2
		c-2.8-3.4-3.3-9.2-1.7-17.8l6.3-32c1.5-7.9,4.1-13.5,7.8-17.3c3.9-3.9,9.2-5.8,16.3-5.8c6.1,0,10.2,1.4,12.5,4.2
		c2.2,2.7,3,6.9,2.4,12.7c6.8-5.6,11.9-13,14.8-21.4c-0.7-1.1-1.4-2.1-2.2-3.1c-5.5-6.7-14.5-10.3-25.9-10.3
		c-23.8,0-39,13.3-43.8,38.4l-6.9,35c-2.3,11.8-0.5,21.9,5.4,29c5.6,6.9,14.6,10.5,26,10.5c12.3,0,22.3-3.6,29.8-10.6
		c6.9-6.5,11.6-15.8,13.9-27.8l0.8-4.3h-18.6L707.3,121.7z"/>
	<g>
		<path class="st1" d="M897.8,10.6C893.8,5.8,886,0,871.3,0h-84.8c-23.7,0-39.3,13.7-44.1,38.5l-3.8,19.3
			c-1.1,5.7-3.1,11.1-5.8,16.1c-3.4,6.4-8.1,12.1-13.8,16.8c-2.3,1.9-4.6,3.6-6.8,5.3c-7.8,5.9-14.4,10.3-14.4,10.3
			c-2.7,1.9-1.3,6.2,2,6.2h9.3h143.6c23.6,0,39.2-13.7,44-38.5l6.6-33.5C905.8,28.2,903.8,17.9,897.8,10.6z M798.1,95.3h-21.4
			l4.1-23.5l-9.2-48h22.3l1.3,26.4h0.3L806,23.8h22.8l-26.7,48L798.1,95.3z M850.8,95.3V84.8H838l-3.7,10.5h-22l30.1-71.5h26.2
			l3.7,71.5H850.8z"/>
		<polygon class="st1" points="843,68.8 851.1,68.8 851.1,45.2 850.7,45.2 		"/>
	</g>
</g>
</svg>
